<svg id="Layer_1" data-name="Layer 1" xmlns="http://www.w3.org/2000/svg" viewBox="0 0 174.02 174.02"><defs><style>.cls-1{fill:#871178;}.cls-1,.cls-2,.cls-3,.cls-4{fill-rule:evenodd;}.cls-2{fill:#99ca3a;}.cls-3{fill:#b3d135;}.cls-4{fill:#a34c94;}</style></defs><title>logo</title><path class="cls-1" d="M123,101.09a7.7,7.7,0,0,1-3.62.86,10.08,10.08,0,0,1-5.34-1.73,10.69,10.69,0,0,1-3.93-4.4,12.49,12.49,0,0,1-1.26-4.24,9.2,9.2,0,0,1,.63-4.08,8.05,8.05,0,0,1,4.72-4.8,9.09,9.09,0,0,1,3.39-.63,10.31,10.31,0,0,1,5.82,1.73,10,10,0,0,1,3.85,4.56,10.65,10.65,0,0,1,.31,7.39,8.91,8.91,0,0,1-4.55,5.35M123.24,126a7.9,7.9,0,0,1-3.69.94,7.06,7.06,0,0,1-4.17-1.26,7.65,7.65,0,0,1-2.83-3.38,8.93,8.93,0,0,1-.08-6.68,8.73,8.73,0,0,1,4.49-4.88,7.81,7.81,0,0,1,3.46-.86,7.67,7.67,0,0,1,4.24,1.33,7.79,7.79,0,0,1,2.76,3.54,9.48,9.48,0,0,1-.08,6.45,9,9,0,0,1-4.09,4.8m-7.15,18.39a8.65,8.65,0,0,1-4.24,1.18,4.74,4.74,0,0,1-4.47-2.35,5.34,5.34,0,0,1,.07-4.64,8.57,8.57,0,0,1,3.62-4,8,8,0,0,1,3.93-1.1,5,5,0,0,1,4.64,2.59,5.2,5.2,0,0,1,0,4.49,7.76,7.76,0,0,1-3.54,3.85m-11.55,14.07a9.48,9.48,0,0,1-3.39.71q-2.91,0-3.7-2a4,4,0,0,1,.87-3.54,9.17,9.17,0,0,1,3.85-2.9,9.59,9.59,0,0,1,3.54-.72c2.15,0,3.46.76,3.93,2.12a3.72,3.72,0,0,1-1,3.46,10.08,10.08,0,0,1-4.08,2.84m-13-87.73A13.21,13.21,0,0,1,90.31,66,10.2,10.2,0,0,1,91,61.47a8.26,8.26,0,0,1,5.19-4.88A10.22,10.22,0,0,1,99.58,56a13.6,13.6,0,0,1,7.15,2,14.75,14.75,0,0,1,5.19,5.43,11,11,0,0,1,1.25,4.32,8.94,8.94,0,0,1-.55,4.24,9.29,9.29,0,0,1-5.43,5.43,10.62,10.62,0,0,1-3.85.7,13.07,13.07,0,0,1-6.84-2,14.48,14.48,0,0,1-5-5.42m-6.21-19.1a9.32,9.32,0,0,1-8.8-6.53A10.73,10.73,0,0,1,76.79,38a7.79,7.79,0,0,1,4.57-4.57A8.06,8.06,0,0,1,83.86,33a8.89,8.89,0,0,1,5.27,1.74,10.78,10.78,0,0,1,3.77,4.48,9.2,9.2,0,0,1,.24,7.31,8.07,8.07,0,0,1-4.8,4.55,8.48,8.48,0,0,1-3,.56M84.81,15.25A6.83,6.83,0,0,1,86.54,15a5.93,5.93,0,0,1,3.69,1.25,7,7,0,0,1,2.28,3.3,6.47,6.47,0,0,1-.63,5,6.9,6.9,0,0,1-6,3.61,5.54,5.54,0,0,1-3.7-1.32,6,6,0,0,1-2-3.46,7.81,7.81,0,0,1,.87-5,7,7,0,0,1,3.77-3.14M95.26,5a10.26,10.26,0,0,1,1-.07,4.31,4.31,0,0,1,2.59.79,3.23,3.23,0,0,1,1.34,2,3.27,3.27,0,0,1-.79,2.83,5.29,5.29,0,0,1-3,1.73,5.47,5.47,0,0,1-1.25.16,4.49,4.49,0,0,1-2.68-.79,3,3,0,0,1-1.18-2,3.61,3.61,0,0,1,.95-2.83,5.72,5.72,0,0,1,3-1.74m0.87,158.63a4.77,4.77,0,0,1-3.06,2.28,5.57,5.57,0,0,1-1.66.23,3.46,3.46,0,0,1-3.22-1.58A1.65,1.65,0,0,1,88,163a4.1,4.1,0,0,1,2.75-2,8.42,8.42,0,0,1,2-.23,5.85,5.85,0,0,1,2.27.39,2.16,2.16,0,0,1,1.18,1.18,1.47,1.47,0,0,1-.08,1.25M87,0H85.91Q75.61,9.2,71.61,17.76a33.32,33.32,0,0,0-3.39,16.82,49,49,0,0,0,4.24,16.35A162.12,162.12,0,0,0,81,67.51q4.87,8.41,9.5,17.3a96.36,96.36,0,0,1,7.23,18.63,57.26,57.26,0,0,1,1.58,20.44q-1,10.76-7.38,23T72.39,172.77A94.4,94.4,0,0,0,87,174,87.06,87.06,0,0,0,167.18,53.13a87.7,87.7,0,0,0-18.71-27.67A86.56,86.56,0,0,0,87,0" transform="translate(0 0)"/><path class="cls-2" d="M80,0.31A85.29,85.29,0,0,0,48.65,9,87,87,0,0,0,23.19,27.83,88.75,88.75,0,0,0,6.2,54.7,85.8,85.8,0,0,0,0,87a87.09,87.09,0,0,0,4.71,28.38,88.39,88.39,0,0,0,13.21,24.52,86.28,86.28,0,0,0,20,18.94,85.29,85.29,0,0,0,25.23,11.86q11.49-13.05,17.06-24.84a67.31,67.31,0,0,0,6.44-22.4A66.86,66.86,0,0,0,85.6,103a108.5,108.5,0,0,0-5.9-18.78q-3.77-9.13-7.78-17.69a164.19,164.19,0,0,1-6.68-16.81,53,53,0,0,1-2.83-16.36,35.77,35.77,0,0,1,4-16.35Q70.43,8.81,80,.31" transform="translate(0 0)"/><path class="cls-3" d="M81.82,113.74c1.68,0,3.38,0,5.11-.08a76.38,76.38,0,0,0-3.3-18.39,160.42,160.42,0,0,0-6.45-17.14q-3.77-8.26-7.3-16.2a122.07,122.07,0,0,1-5.67-15.56,47.47,47.47,0,0,1-1.73-15.25A36.51,36.51,0,0,1,67,15.87Q71,8.25,80,.31A87.1,87.1,0,0,0,23.5,27.58,86.63,86.63,0,0,0,6.44,54.15,85.74,85.74,0,0,0,0,86.14a120.1,120.1,0,0,0,23.5,14.78,133.78,133.78,0,0,0,27.58,9.51,140.41,140.41,0,0,0,30.74,3.31" transform="translate(0 0)"/><path class="cls-4" d="M123,101.09a7.7,7.7,0,0,1-3.62.86,10.08,10.08,0,0,1-5.34-1.73,10.69,10.69,0,0,1-3.93-4.4,12.49,12.49,0,0,1-1.26-4.24,9.2,9.2,0,0,1,.63-4.08,8.05,8.05,0,0,1,4.72-4.8,9.09,9.09,0,0,1,3.39-.63,10.31,10.31,0,0,1,5.82,1.73,10,10,0,0,1,3.85,4.56,10.65,10.65,0,0,1,.31,7.39,8.91,8.91,0,0,1-4.55,5.35M103.36,78.2a13.07,13.07,0,0,1-6.84-2,14.48,14.48,0,0,1-5-5.42A13.21,13.21,0,0,1,90.31,66,10.2,10.2,0,0,1,91,61.47a8.26,8.26,0,0,1,5.19-4.88A10.22,10.22,0,0,1,99.58,56a13.6,13.6,0,0,1,7.15,2,14.75,14.75,0,0,1,5.19,5.43,11,11,0,0,1,1.25,4.32,8.94,8.94,0,0,1-.55,4.24,9.29,9.29,0,0,1-5.43,5.43,10.62,10.62,0,0,1-3.85.7m-18-26.56a9.32,9.32,0,0,1-8.8-6.53A10.73,10.73,0,0,1,76.79,38a7.79,7.79,0,0,1,4.57-4.57A8.06,8.06,0,0,1,83.86,33a8.89,8.89,0,0,1,5.27,1.74,10.78,10.78,0,0,1,3.77,4.48,9.2,9.2,0,0,1,.24,7.31,8.07,8.07,0,0,1-4.8,4.55,8.48,8.48,0,0,1-3,.56M84.81,15.25A6.83,6.83,0,0,1,86.54,15a5.93,5.93,0,0,1,3.69,1.25,7,7,0,0,1,2.28,3.3,6.47,6.47,0,0,1-.63,5,6.9,6.9,0,0,1-6,3.61,5.54,5.54,0,0,1-3.7-1.32,6,6,0,0,1-2-3.46,7.81,7.81,0,0,1,.87-5,7,7,0,0,1,3.77-3.14M95.26,5a10.26,10.26,0,0,1,1-.07,4.31,4.31,0,0,1,2.59.79,3.23,3.23,0,0,1,1.34,2,3.27,3.27,0,0,1-.79,2.83,5.29,5.29,0,0,1-3,1.73,5.47,5.47,0,0,1-1.25.16,4.49,4.49,0,0,1-2.68-.79,3,3,0,0,1-1.18-2,3.61,3.61,0,0,1,.95-2.83,5.72,5.72,0,0,1,3-1.74M173.4,77.19A86.91,86.91,0,0,0,87,0H85.91Q76.39,8.49,72.23,16.43a34.28,34.28,0,0,0-4.09,15.64A43,43,0,0,0,71,47.24a107.45,107.45,0,0,0,7.15,15.18q4.33,7.7,8.88,15.64a142.44,142.44,0,0,1,7.94,16.66,66.94,66.94,0,0,1,4.48,17.92,132.4,132.4,0,0,0,41.42-12.1A113.34,113.34,0,0,0,173.4,77.19" transform="translate(0 0)"/></svg>